<mxfile host="Electron" modified="2024-05-04T17:01:52.693Z" agent="Mozilla/5.0 (Windows NT 10.0; Win64; x64) AppleWebKit/537.36 (KHTML, like Gecko) draw.io/24.2.5 Chrome/120.0.6099.109 Electron/28.1.0 Safari/537.36" etag="U131Cy1M4ITfMa4wfj6Z" version="24.2.5" type="device">
  <diagram name="第 1 页" id="gTK-FKYgxDKsyjKZbXm8">
    <mxGraphModel dx="1050" dy="629" grid="1" gridSize="10" guides="1" tooltips="1" connect="1" arrows="1" fold="1" page="1" pageScale="1" pageWidth="827" pageHeight="1169" math="0" shadow="0">
      <root>
        <mxCell id="0" />
        <mxCell id="1" parent="0" />
        <mxCell id="mmLs14gXnxL-d7uuGad4-107" value="" style="rounded=0;whiteSpace=wrap;html=1;fillColor=#cce5ff;strokeColor=#36393d;" vertex="1" parent="1">
          <mxGeometry x="40" y="430" width="860" height="670" as="geometry" />
        </mxCell>
        <mxCell id="mmLs14gXnxL-d7uuGad4-26" value="" style="shape=table;startSize=0;container=1;collapsible=0;childLayout=tableLayout;fontSize=16;" vertex="1" parent="1">
          <mxGeometry x="70" y="510" width="380" height="560" as="geometry" />
        </mxCell>
        <mxCell id="mmLs14gXnxL-d7uuGad4-27" value="" style="shape=tableRow;horizontal=0;startSize=0;swimlaneHead=0;swimlaneBody=0;strokeColor=inherit;top=0;left=0;bottom=0;right=0;collapsible=0;dropTarget=0;fillColor=none;points=[[0,0.5],[1,0.5]];portConstraint=eastwest;fontSize=16;" vertex="1" parent="mmLs14gXnxL-d7uuGad4-26">
          <mxGeometry width="380" height="40" as="geometry" />
        </mxCell>
        <mxCell id="mmLs14gXnxL-d7uuGad4-28" value="GPU Virtual Address (Constant Buffer)" style="shape=partialRectangle;html=1;whiteSpace=wrap;connectable=0;strokeColor=#b85450;overflow=hidden;fillColor=#f8cecc;top=0;left=0;bottom=0;right=0;pointerEvents=1;fontSize=16;" vertex="1" parent="mmLs14gXnxL-d7uuGad4-27">
          <mxGeometry width="380" height="40" as="geometry">
            <mxRectangle width="380" height="40" as="alternateBounds" />
          </mxGeometry>
        </mxCell>
        <mxCell id="mmLs14gXnxL-d7uuGad4-29" style="shape=tableRow;horizontal=0;startSize=0;swimlaneHead=0;swimlaneBody=0;strokeColor=inherit;top=0;left=0;bottom=0;right=0;collapsible=0;dropTarget=0;fillColor=none;points=[[0,0.5],[1,0.5]];portConstraint=eastwest;fontSize=16;" vertex="1" parent="mmLs14gXnxL-d7uuGad4-26">
          <mxGeometry y="40" width="380" height="40" as="geometry" />
        </mxCell>
        <mxCell id="mmLs14gXnxL-d7uuGad4-30" value="GPU Virtual Address (VS Tile Info)" style="shape=partialRectangle;html=1;whiteSpace=wrap;connectable=0;strokeColor=#b85450;overflow=hidden;fillColor=#f8cecc;top=0;left=0;bottom=0;right=0;pointerEvents=1;fontSize=16;" vertex="1" parent="mmLs14gXnxL-d7uuGad4-29">
          <mxGeometry width="380" height="40" as="geometry">
            <mxRectangle width="380" height="40" as="alternateBounds" />
          </mxGeometry>
        </mxCell>
        <mxCell id="mmLs14gXnxL-d7uuGad4-31" style="shape=tableRow;horizontal=0;startSize=0;swimlaneHead=0;swimlaneBody=0;strokeColor=inherit;top=0;left=0;bottom=0;right=0;collapsible=0;dropTarget=0;fillColor=none;points=[[0,0.5],[1,0.5]];portConstraint=eastwest;fontSize=16;" vertex="1" parent="mmLs14gXnxL-d7uuGad4-26">
          <mxGeometry y="80" width="380" height="40" as="geometry" />
        </mxCell>
        <mxCell id="mmLs14gXnxL-d7uuGad4-32" value="GPU Virtual Address (PS Tile Info)" style="shape=partialRectangle;html=1;whiteSpace=wrap;connectable=0;strokeColor=#b85450;overflow=hidden;fillColor=#f8cecc;top=0;left=0;bottom=0;right=0;pointerEvents=1;fontSize=16;" vertex="1" parent="mmLs14gXnxL-d7uuGad4-31">
          <mxGeometry width="380" height="40" as="geometry">
            <mxRectangle width="380" height="40" as="alternateBounds" />
          </mxGeometry>
        </mxCell>
        <mxCell id="mmLs14gXnxL-d7uuGad4-33" value="" style="shape=tableRow;horizontal=0;startSize=0;swimlaneHead=0;swimlaneBody=0;strokeColor=inherit;top=0;left=0;bottom=0;right=0;collapsible=0;dropTarget=0;fillColor=none;points=[[0,0.5],[1,0.5]];portConstraint=eastwest;fontSize=16;" vertex="1" parent="mmLs14gXnxL-d7uuGad4-26">
          <mxGeometry y="120" width="380" height="40" as="geometry" />
        </mxCell>
        <mxCell id="mmLs14gXnxL-d7uuGad4-34" value="GPU Virtual Address (Buffer Location)" style="shape=partialRectangle;html=1;whiteSpace=wrap;connectable=0;strokeColor=#d6b656;overflow=hidden;fillColor=#fff2cc;top=0;left=0;bottom=0;right=0;pointerEvents=1;fontSize=16;" vertex="1" parent="mmLs14gXnxL-d7uuGad4-33">
          <mxGeometry width="380" height="40" as="geometry">
            <mxRectangle width="380" height="40" as="alternateBounds" />
          </mxGeometry>
        </mxCell>
        <mxCell id="mmLs14gXnxL-d7uuGad4-35" value="" style="shape=tableRow;horizontal=0;startSize=0;swimlaneHead=0;swimlaneBody=0;strokeColor=inherit;top=0;left=0;bottom=0;right=0;collapsible=0;dropTarget=0;fillColor=none;points=[[0,0.5],[1,0.5]];portConstraint=eastwest;fontSize=16;" vertex="1" parent="mmLs14gXnxL-d7uuGad4-26">
          <mxGeometry y="160" width="380" height="40" as="geometry" />
        </mxCell>
        <mxCell id="mmLs14gXnxL-d7uuGad4-36" value="SizeInBytes" style="shape=partialRectangle;html=1;whiteSpace=wrap;connectable=0;strokeColor=#d6b656;overflow=hidden;fillColor=#fff2cc;top=0;left=0;bottom=0;right=0;pointerEvents=1;fontSize=16;" vertex="1" parent="mmLs14gXnxL-d7uuGad4-35">
          <mxGeometry width="380" height="40" as="geometry">
            <mxRectangle width="380" height="40" as="alternateBounds" />
          </mxGeometry>
        </mxCell>
        <mxCell id="mmLs14gXnxL-d7uuGad4-37" style="shape=tableRow;horizontal=0;startSize=0;swimlaneHead=0;swimlaneBody=0;strokeColor=inherit;top=0;left=0;bottom=0;right=0;collapsible=0;dropTarget=0;fillColor=none;points=[[0,0.5],[1,0.5]];portConstraint=eastwest;fontSize=16;" vertex="1" parent="mmLs14gXnxL-d7uuGad4-26">
          <mxGeometry y="200" width="380" height="40" as="geometry" />
        </mxCell>
        <mxCell id="mmLs14gXnxL-d7uuGad4-38" value="StrideInBytes" style="shape=partialRectangle;html=1;whiteSpace=wrap;connectable=0;strokeColor=#d6b656;overflow=hidden;fillColor=#fff2cc;top=0;left=0;bottom=0;right=0;pointerEvents=1;fontSize=16;" vertex="1" parent="mmLs14gXnxL-d7uuGad4-37">
          <mxGeometry width="380" height="40" as="geometry">
            <mxRectangle width="380" height="40" as="alternateBounds" />
          </mxGeometry>
        </mxCell>
        <mxCell id="mmLs14gXnxL-d7uuGad4-39" style="shape=tableRow;horizontal=0;startSize=0;swimlaneHead=0;swimlaneBody=0;strokeColor=inherit;top=0;left=0;bottom=0;right=0;collapsible=0;dropTarget=0;fillColor=none;points=[[0,0.5],[1,0.5]];portConstraint=eastwest;fontSize=16;" vertex="1" parent="mmLs14gXnxL-d7uuGad4-26">
          <mxGeometry y="240" width="380" height="40" as="geometry" />
        </mxCell>
        <mxCell id="mmLs14gXnxL-d7uuGad4-40" value="GPU Virtual Address (Buffer Location)" style="shape=partialRectangle;html=1;whiteSpace=wrap;connectable=0;strokeColor=#82b366;overflow=hidden;fillColor=#d5e8d4;top=0;left=0;bottom=0;right=0;pointerEvents=1;fontSize=16;" vertex="1" parent="mmLs14gXnxL-d7uuGad4-39">
          <mxGeometry width="380" height="40" as="geometry">
            <mxRectangle width="380" height="40" as="alternateBounds" />
          </mxGeometry>
        </mxCell>
        <mxCell id="mmLs14gXnxL-d7uuGad4-41" style="shape=tableRow;horizontal=0;startSize=0;swimlaneHead=0;swimlaneBody=0;strokeColor=inherit;top=0;left=0;bottom=0;right=0;collapsible=0;dropTarget=0;fillColor=none;points=[[0,0.5],[1,0.5]];portConstraint=eastwest;fontSize=16;" vertex="1" parent="mmLs14gXnxL-d7uuGad4-26">
          <mxGeometry y="280" width="380" height="40" as="geometry" />
        </mxCell>
        <mxCell id="mmLs14gXnxL-d7uuGad4-42" value="SizeInBytes" style="shape=partialRectangle;html=1;whiteSpace=wrap;connectable=0;strokeColor=#82b366;overflow=hidden;fillColor=#d5e8d4;top=0;left=0;bottom=0;right=0;pointerEvents=1;fontSize=16;" vertex="1" parent="mmLs14gXnxL-d7uuGad4-41">
          <mxGeometry width="380" height="40" as="geometry">
            <mxRectangle width="380" height="40" as="alternateBounds" />
          </mxGeometry>
        </mxCell>
        <mxCell id="mmLs14gXnxL-d7uuGad4-43" style="shape=tableRow;horizontal=0;startSize=0;swimlaneHead=0;swimlaneBody=0;strokeColor=inherit;top=0;left=0;bottom=0;right=0;collapsible=0;dropTarget=0;fillColor=none;points=[[0,0.5],[1,0.5]];portConstraint=eastwest;fontSize=16;" vertex="1" parent="mmLs14gXnxL-d7uuGad4-26">
          <mxGeometry y="320" width="380" height="40" as="geometry" />
        </mxCell>
        <mxCell id="mmLs14gXnxL-d7uuGad4-44" value="Format" style="shape=partialRectangle;html=1;whiteSpace=wrap;connectable=0;strokeColor=#82b366;overflow=hidden;fillColor=#d5e8d4;top=0;left=0;bottom=0;right=0;pointerEvents=1;fontSize=16;" vertex="1" parent="mmLs14gXnxL-d7uuGad4-43">
          <mxGeometry width="380" height="40" as="geometry">
            <mxRectangle width="380" height="40" as="alternateBounds" />
          </mxGeometry>
        </mxCell>
        <mxCell id="mmLs14gXnxL-d7uuGad4-45" style="shape=tableRow;horizontal=0;startSize=0;swimlaneHead=0;swimlaneBody=0;strokeColor=inherit;top=0;left=0;bottom=0;right=0;collapsible=0;dropTarget=0;fillColor=none;points=[[0,0.5],[1,0.5]];portConstraint=eastwest;fontSize=16;" vertex="1" parent="mmLs14gXnxL-d7uuGad4-26">
          <mxGeometry y="360" width="380" height="40" as="geometry" />
        </mxCell>
        <mxCell id="mmLs14gXnxL-d7uuGad4-46" value="IndexCountPerInstance" style="shape=partialRectangle;html=1;whiteSpace=wrap;connectable=0;strokeColor=#9673a6;overflow=hidden;fillColor=#e1d5e7;top=0;left=0;bottom=0;right=0;pointerEvents=1;fontSize=16;" vertex="1" parent="mmLs14gXnxL-d7uuGad4-45">
          <mxGeometry width="380" height="40" as="geometry">
            <mxRectangle width="380" height="40" as="alternateBounds" />
          </mxGeometry>
        </mxCell>
        <mxCell id="mmLs14gXnxL-d7uuGad4-47" style="shape=tableRow;horizontal=0;startSize=0;swimlaneHead=0;swimlaneBody=0;strokeColor=inherit;top=0;left=0;bottom=0;right=0;collapsible=0;dropTarget=0;fillColor=none;points=[[0,0.5],[1,0.5]];portConstraint=eastwest;fontSize=16;" vertex="1" parent="mmLs14gXnxL-d7uuGad4-26">
          <mxGeometry y="400" width="380" height="40" as="geometry" />
        </mxCell>
        <mxCell id="mmLs14gXnxL-d7uuGad4-48" value="InstanceCount" style="shape=partialRectangle;html=1;whiteSpace=wrap;connectable=0;strokeColor=#9673a6;overflow=hidden;fillColor=#e1d5e7;top=0;left=0;bottom=0;right=0;pointerEvents=1;fontSize=16;" vertex="1" parent="mmLs14gXnxL-d7uuGad4-47">
          <mxGeometry width="380" height="40" as="geometry">
            <mxRectangle width="380" height="40" as="alternateBounds" />
          </mxGeometry>
        </mxCell>
        <mxCell id="mmLs14gXnxL-d7uuGad4-49" style="shape=tableRow;horizontal=0;startSize=0;swimlaneHead=0;swimlaneBody=0;strokeColor=inherit;top=0;left=0;bottom=0;right=0;collapsible=0;dropTarget=0;fillColor=none;points=[[0,0.5],[1,0.5]];portConstraint=eastwest;fontSize=16;" vertex="1" parent="mmLs14gXnxL-d7uuGad4-26">
          <mxGeometry y="440" width="380" height="40" as="geometry" />
        </mxCell>
        <mxCell id="mmLs14gXnxL-d7uuGad4-50" value="StartIndexLocation" style="shape=partialRectangle;html=1;whiteSpace=wrap;connectable=0;strokeColor=#9673a6;overflow=hidden;fillColor=#e1d5e7;top=0;left=0;bottom=0;right=0;pointerEvents=1;fontSize=16;" vertex="1" parent="mmLs14gXnxL-d7uuGad4-49">
          <mxGeometry width="380" height="40" as="geometry">
            <mxRectangle width="380" height="40" as="alternateBounds" />
          </mxGeometry>
        </mxCell>
        <mxCell id="mmLs14gXnxL-d7uuGad4-51" style="shape=tableRow;horizontal=0;startSize=0;swimlaneHead=0;swimlaneBody=0;strokeColor=inherit;top=0;left=0;bottom=0;right=0;collapsible=0;dropTarget=0;fillColor=none;points=[[0,0.5],[1,0.5]];portConstraint=eastwest;fontSize=16;" vertex="1" parent="mmLs14gXnxL-d7uuGad4-26">
          <mxGeometry y="480" width="380" height="40" as="geometry" />
        </mxCell>
        <mxCell id="mmLs14gXnxL-d7uuGad4-52" value="BaseVertexLocation" style="shape=partialRectangle;html=1;whiteSpace=wrap;connectable=0;strokeColor=#9673a6;overflow=hidden;fillColor=#e1d5e7;top=0;left=0;bottom=0;right=0;pointerEvents=1;fontSize=16;" vertex="1" parent="mmLs14gXnxL-d7uuGad4-51">
          <mxGeometry width="380" height="40" as="geometry">
            <mxRectangle width="380" height="40" as="alternateBounds" />
          </mxGeometry>
        </mxCell>
        <mxCell id="mmLs14gXnxL-d7uuGad4-53" style="shape=tableRow;horizontal=0;startSize=0;swimlaneHead=0;swimlaneBody=0;strokeColor=inherit;top=0;left=0;bottom=0;right=0;collapsible=0;dropTarget=0;fillColor=none;points=[[0,0.5],[1,0.5]];portConstraint=eastwest;fontSize=16;" vertex="1" parent="mmLs14gXnxL-d7uuGad4-26">
          <mxGeometry y="520" width="380" height="40" as="geometry" />
        </mxCell>
        <mxCell id="mmLs14gXnxL-d7uuGad4-54" value="StartInstanceLocation" style="shape=partialRectangle;html=1;whiteSpace=wrap;connectable=0;strokeColor=#9673a6;overflow=hidden;fillColor=#e1d5e7;top=0;left=0;bottom=0;right=0;pointerEvents=1;fontSize=16;" vertex="1" parent="mmLs14gXnxL-d7uuGad4-53">
          <mxGeometry width="380" height="40" as="geometry">
            <mxRectangle width="380" height="40" as="alternateBounds" />
          </mxGeometry>
        </mxCell>
        <mxCell id="mmLs14gXnxL-d7uuGad4-55" value="" style="shape=table;startSize=0;container=1;collapsible=0;childLayout=tableLayout;fontSize=16;fillColor=#d5e8d4;strokeColor=#82b366;" vertex="1" parent="1">
          <mxGeometry x="550" y="510" width="70" height="560" as="geometry" />
        </mxCell>
        <mxCell id="mmLs14gXnxL-d7uuGad4-68" style="shape=tableRow;horizontal=0;startSize=0;swimlaneHead=0;swimlaneBody=0;strokeColor=inherit;top=0;left=0;bottom=0;right=0;collapsible=0;dropTarget=0;fillColor=none;points=[[0,0.5],[1,0.5]];portConstraint=eastwest;fontSize=16;" vertex="1" parent="mmLs14gXnxL-d7uuGad4-55">
          <mxGeometry width="70" height="62" as="geometry" />
        </mxCell>
        <mxCell id="mmLs14gXnxL-d7uuGad4-69" style="shape=partialRectangle;html=1;whiteSpace=wrap;connectable=0;strokeColor=inherit;overflow=hidden;fillColor=none;top=0;left=0;bottom=0;right=0;pointerEvents=1;fontSize=16;" vertex="1" parent="mmLs14gXnxL-d7uuGad4-68">
          <mxGeometry width="70" height="62" as="geometry">
            <mxRectangle width="70" height="62" as="alternateBounds" />
          </mxGeometry>
        </mxCell>
        <mxCell id="mmLs14gXnxL-d7uuGad4-72" style="shape=tableRow;horizontal=0;startSize=0;swimlaneHead=0;swimlaneBody=0;strokeColor=inherit;top=0;left=0;bottom=0;right=0;collapsible=0;dropTarget=0;fillColor=none;points=[[0,0.5],[1,0.5]];portConstraint=eastwest;fontSize=16;" vertex="1" parent="mmLs14gXnxL-d7uuGad4-55">
          <mxGeometry y="62" width="70" height="62" as="geometry" />
        </mxCell>
        <mxCell id="mmLs14gXnxL-d7uuGad4-73" style="shape=partialRectangle;html=1;whiteSpace=wrap;connectable=0;strokeColor=inherit;overflow=hidden;fillColor=none;top=0;left=0;bottom=0;right=0;pointerEvents=1;fontSize=16;" vertex="1" parent="mmLs14gXnxL-d7uuGad4-72">
          <mxGeometry width="70" height="62" as="geometry">
            <mxRectangle width="70" height="62" as="alternateBounds" />
          </mxGeometry>
        </mxCell>
        <mxCell id="mmLs14gXnxL-d7uuGad4-76" style="shape=tableRow;horizontal=0;startSize=0;swimlaneHead=0;swimlaneBody=0;strokeColor=inherit;top=0;left=0;bottom=0;right=0;collapsible=0;dropTarget=0;fillColor=none;points=[[0,0.5],[1,0.5]];portConstraint=eastwest;fontSize=16;" vertex="1" parent="mmLs14gXnxL-d7uuGad4-55">
          <mxGeometry y="124" width="70" height="63" as="geometry" />
        </mxCell>
        <mxCell id="mmLs14gXnxL-d7uuGad4-77" style="shape=partialRectangle;html=1;whiteSpace=wrap;connectable=0;strokeColor=inherit;overflow=hidden;fillColor=none;top=0;left=0;bottom=0;right=0;pointerEvents=1;fontSize=16;" vertex="1" parent="mmLs14gXnxL-d7uuGad4-76">
          <mxGeometry width="70" height="63" as="geometry">
            <mxRectangle width="70" height="63" as="alternateBounds" />
          </mxGeometry>
        </mxCell>
        <mxCell id="mmLs14gXnxL-d7uuGad4-80" style="shape=tableRow;horizontal=0;startSize=0;swimlaneHead=0;swimlaneBody=0;strokeColor=inherit;top=0;left=0;bottom=0;right=0;collapsible=0;dropTarget=0;fillColor=none;points=[[0,0.5],[1,0.5]];portConstraint=eastwest;fontSize=16;" vertex="1" parent="mmLs14gXnxL-d7uuGad4-55">
          <mxGeometry y="187" width="70" height="62" as="geometry" />
        </mxCell>
        <mxCell id="mmLs14gXnxL-d7uuGad4-81" style="shape=partialRectangle;html=1;whiteSpace=wrap;connectable=0;strokeColor=inherit;overflow=hidden;fillColor=none;top=0;left=0;bottom=0;right=0;pointerEvents=1;fontSize=16;" vertex="1" parent="mmLs14gXnxL-d7uuGad4-80">
          <mxGeometry width="70" height="62" as="geometry">
            <mxRectangle width="70" height="62" as="alternateBounds" />
          </mxGeometry>
        </mxCell>
        <mxCell id="mmLs14gXnxL-d7uuGad4-84" style="shape=tableRow;horizontal=0;startSize=0;swimlaneHead=0;swimlaneBody=0;strokeColor=inherit;top=0;left=0;bottom=0;right=0;collapsible=0;dropTarget=0;fillColor=none;points=[[0,0.5],[1,0.5]];portConstraint=eastwest;fontSize=16;" vertex="1" parent="mmLs14gXnxL-d7uuGad4-55">
          <mxGeometry y="249" width="70" height="62" as="geometry" />
        </mxCell>
        <mxCell id="mmLs14gXnxL-d7uuGad4-85" style="shape=partialRectangle;html=1;whiteSpace=wrap;connectable=0;strokeColor=inherit;overflow=hidden;fillColor=none;top=0;left=0;bottom=0;right=0;pointerEvents=1;fontSize=16;" vertex="1" parent="mmLs14gXnxL-d7uuGad4-84">
          <mxGeometry width="70" height="62" as="geometry">
            <mxRectangle width="70" height="62" as="alternateBounds" />
          </mxGeometry>
        </mxCell>
        <mxCell id="mmLs14gXnxL-d7uuGad4-88" style="shape=tableRow;horizontal=0;startSize=0;swimlaneHead=0;swimlaneBody=0;strokeColor=inherit;top=0;left=0;bottom=0;right=0;collapsible=0;dropTarget=0;fillColor=none;points=[[0,0.5],[1,0.5]];portConstraint=eastwest;fontSize=16;" vertex="1" parent="mmLs14gXnxL-d7uuGad4-55">
          <mxGeometry y="311" width="70" height="62" as="geometry" />
        </mxCell>
        <mxCell id="mmLs14gXnxL-d7uuGad4-89" style="shape=partialRectangle;html=1;whiteSpace=wrap;connectable=0;strokeColor=inherit;overflow=hidden;fillColor=none;top=0;left=0;bottom=0;right=0;pointerEvents=1;fontSize=16;" vertex="1" parent="mmLs14gXnxL-d7uuGad4-88">
          <mxGeometry width="70" height="62" as="geometry">
            <mxRectangle width="70" height="62" as="alternateBounds" />
          </mxGeometry>
        </mxCell>
        <mxCell id="mmLs14gXnxL-d7uuGad4-56" value="" style="shape=tableRow;horizontal=0;startSize=0;swimlaneHead=0;swimlaneBody=0;strokeColor=inherit;top=0;left=0;bottom=0;right=0;collapsible=0;dropTarget=0;fillColor=none;points=[[0,0.5],[1,0.5]];portConstraint=eastwest;fontSize=16;" vertex="1" parent="mmLs14gXnxL-d7uuGad4-55">
          <mxGeometry y="373" width="70" height="63" as="geometry" />
        </mxCell>
        <mxCell id="mmLs14gXnxL-d7uuGad4-57" value="" style="shape=partialRectangle;html=1;whiteSpace=wrap;connectable=0;strokeColor=inherit;overflow=hidden;fillColor=none;top=0;left=0;bottom=0;right=0;pointerEvents=1;fontSize=16;" vertex="1" parent="mmLs14gXnxL-d7uuGad4-56">
          <mxGeometry width="70" height="63" as="geometry">
            <mxRectangle width="70" height="63" as="alternateBounds" />
          </mxGeometry>
        </mxCell>
        <mxCell id="mmLs14gXnxL-d7uuGad4-60" value="" style="shape=tableRow;horizontal=0;startSize=0;swimlaneHead=0;swimlaneBody=0;strokeColor=inherit;top=0;left=0;bottom=0;right=0;collapsible=0;dropTarget=0;fillColor=none;points=[[0,0.5],[1,0.5]];portConstraint=eastwest;fontSize=16;" vertex="1" parent="mmLs14gXnxL-d7uuGad4-55">
          <mxGeometry y="436" width="70" height="62" as="geometry" />
        </mxCell>
        <mxCell id="mmLs14gXnxL-d7uuGad4-61" value="" style="shape=partialRectangle;html=1;whiteSpace=wrap;connectable=0;strokeColor=inherit;overflow=hidden;fillColor=none;top=0;left=0;bottom=0;right=0;pointerEvents=1;fontSize=16;" vertex="1" parent="mmLs14gXnxL-d7uuGad4-60">
          <mxGeometry width="70" height="62" as="geometry">
            <mxRectangle width="70" height="62" as="alternateBounds" />
          </mxGeometry>
        </mxCell>
        <mxCell id="mmLs14gXnxL-d7uuGad4-64" value="" style="shape=tableRow;horizontal=0;startSize=0;swimlaneHead=0;swimlaneBody=0;strokeColor=inherit;top=0;left=0;bottom=0;right=0;collapsible=0;dropTarget=0;fillColor=none;points=[[0,0.5],[1,0.5]];portConstraint=eastwest;fontSize=16;" vertex="1" parent="mmLs14gXnxL-d7uuGad4-55">
          <mxGeometry y="498" width="70" height="62" as="geometry" />
        </mxCell>
        <mxCell id="mmLs14gXnxL-d7uuGad4-65" value="" style="shape=partialRectangle;html=1;whiteSpace=wrap;connectable=0;strokeColor=inherit;overflow=hidden;fillColor=none;top=0;left=0;bottom=0;right=0;pointerEvents=1;fontSize=16;" vertex="1" parent="mmLs14gXnxL-d7uuGad4-64">
          <mxGeometry width="70" height="62" as="geometry">
            <mxRectangle width="70" height="62" as="alternateBounds" />
          </mxGeometry>
        </mxCell>
        <mxCell id="mmLs14gXnxL-d7uuGad4-92" value="" style="endArrow=classic;html=1;rounded=0;exitX=0.04;exitY=0.631;exitDx=0;exitDy=0;exitPerimeter=0;entryX=0.998;entryY=0.112;entryDx=0;entryDy=0;entryPerimeter=0;" edge="1" parent="1" source="mmLs14gXnxL-d7uuGad4-76" target="mmLs14gXnxL-d7uuGad4-26">
          <mxGeometry width="50" height="50" relative="1" as="geometry">
            <mxPoint x="600" y="690" as="sourcePoint" />
            <mxPoint x="650" y="640" as="targetPoint" />
          </mxGeometry>
        </mxCell>
        <mxCell id="mmLs14gXnxL-d7uuGad4-93" value="" style="endArrow=classic;html=1;rounded=0;entryX=1.002;entryY=0.178;entryDx=0;entryDy=0;entryPerimeter=0;exitX=0;exitY=0.5;exitDx=0;exitDy=0;" edge="1" parent="1" source="mmLs14gXnxL-d7uuGad4-76" target="mmLs14gXnxL-d7uuGad4-26">
          <mxGeometry width="50" height="50" relative="1" as="geometry">
            <mxPoint x="730" y="670" as="sourcePoint" />
            <mxPoint x="459" y="583" as="targetPoint" />
          </mxGeometry>
        </mxCell>
        <mxCell id="mmLs14gXnxL-d7uuGad4-94" value="" style="endArrow=classic;html=1;rounded=0;entryX=0.983;entryY=0.045;entryDx=0;entryDy=0;entryPerimeter=0;" edge="1" parent="1" target="mmLs14gXnxL-d7uuGad4-68">
          <mxGeometry width="50" height="50" relative="1" as="geometry">
            <mxPoint x="700" y="513" as="sourcePoint" />
            <mxPoint x="650" y="640" as="targetPoint" />
          </mxGeometry>
        </mxCell>
        <mxCell id="mmLs14gXnxL-d7uuGad4-95" value="Start GPU Address" style="text;html=1;align=center;verticalAlign=middle;whiteSpace=wrap;rounded=0;fontSize=15;" vertex="1" parent="1">
          <mxGeometry x="700" y="500" width="190" height="30" as="geometry" />
        </mxCell>
        <mxCell id="mmLs14gXnxL-d7uuGad4-96" value="Indirect Command Layout" style="text;html=1;align=center;verticalAlign=middle;whiteSpace=wrap;rounded=0;fontSize=15;" vertex="1" parent="1">
          <mxGeometry x="155" y="460" width="210" height="30" as="geometry" />
        </mxCell>
        <mxCell id="mmLs14gXnxL-d7uuGad4-97" value="Global Tile Constant Buffer(Generated On The CPU)" style="text;html=1;align=center;verticalAlign=middle;whiteSpace=wrap;rounded=0;fontSize=15;" vertex="1" parent="1">
          <mxGeometry x="450" y="460" width="370" height="30" as="geometry" />
        </mxCell>
        <mxCell id="mmLs14gXnxL-d7uuGad4-98" value="Start GPU Address&lt;div style=&quot;font-size: 15px;&quot;&gt;+&lt;/div&gt;&lt;div style=&quot;font-size: 15px;&quot;&gt;2 * Sizeof(ShadowTileInfo)&lt;/div&gt;" style="text;html=1;align=center;verticalAlign=middle;whiteSpace=wrap;rounded=0;fontSize=15;" vertex="1" parent="1">
          <mxGeometry x="700" y="600" width="190" height="70" as="geometry" />
        </mxCell>
        <mxCell id="mmLs14gXnxL-d7uuGad4-99" value="" style="endArrow=classic;html=1;rounded=0;entryX=0.983;entryY=0.045;entryDx=0;entryDy=0;entryPerimeter=0;" edge="1" parent="1">
          <mxGeometry width="50" height="50" relative="1" as="geometry">
            <mxPoint x="700" y="630" as="sourcePoint" />
            <mxPoint x="619" y="630" as="targetPoint" />
          </mxGeometry>
        </mxCell>
        <mxCell id="mmLs14gXnxL-d7uuGad4-100" value="" style="endArrow=classic;html=1;rounded=0;" edge="1" parent="1" target="mmLs14gXnxL-d7uuGad4-101">
          <mxGeometry width="50" height="50" relative="1" as="geometry">
            <mxPoint x="580" y="920" as="sourcePoint" />
            <mxPoint x="680" y="920" as="targetPoint" />
          </mxGeometry>
        </mxCell>
        <mxCell id="mmLs14gXnxL-d7uuGad4-101" value="Tile Infomation" style="swimlane;fontStyle=0;childLayout=stackLayout;horizontal=1;startSize=30;horizontalStack=0;resizeParent=1;resizeParentMax=0;resizeLast=0;collapsible=1;marginBottom=0;whiteSpace=wrap;html=1;fillColor=#dae8fc;strokeColor=#6c8ebf;" vertex="1" parent="1">
          <mxGeometry x="687" y="830" width="140" height="180" as="geometry" />
        </mxCell>
        <mxCell id="mmLs14gXnxL-d7uuGad4-102" value="&lt;div style=&quot;line-height: 19px;&quot;&gt;&lt;font color=&quot;#1e1e1e&quot; face=&quot;Consolas, Courier New, monospace&quot;&gt;&lt;span style=&quot;font-size: 14px; white-space: pre;&quot;&gt;float4x4&lt;/span&gt;&lt;/font&gt;&lt;br&gt;&lt;/div&gt;" style="text;strokeColor=#d6b656;fillColor=#fff2cc;align=left;verticalAlign=middle;spacingLeft=4;spacingRight=4;overflow=hidden;points=[[0,0.5],[1,0.5]];portConstraint=eastwest;rotatable=0;whiteSpace=wrap;html=1;" vertex="1" parent="mmLs14gXnxL-d7uuGad4-101">
          <mxGeometry y="30" width="140" height="30" as="geometry" />
        </mxCell>
        <mxCell id="mmLs14gXnxL-d7uuGad4-103" value="uint VirtualTableIndexX" style="text;strokeColor=#d6b656;fillColor=#fff2cc;align=left;verticalAlign=middle;spacingLeft=4;spacingRight=4;overflow=hidden;points=[[0,0.5],[1,0.5]];portConstraint=eastwest;rotatable=0;whiteSpace=wrap;html=1;" vertex="1" parent="mmLs14gXnxL-d7uuGad4-101">
          <mxGeometry y="60" width="140" height="30" as="geometry" />
        </mxCell>
        <mxCell id="mmLs14gXnxL-d7uuGad4-104" value="uint VirtualTableIndexY" style="text;strokeColor=#d6b656;fillColor=#fff2cc;align=left;verticalAlign=middle;spacingLeft=4;spacingRight=4;overflow=hidden;points=[[0,0.5],[1,0.5]];portConstraint=eastwest;rotatable=0;whiteSpace=wrap;html=1;" vertex="1" parent="mmLs14gXnxL-d7uuGad4-101">
          <mxGeometry y="90" width="140" height="30" as="geometry" />
        </mxCell>
        <mxCell id="mmLs14gXnxL-d7uuGad4-106" value="uint MipLevel" style="text;strokeColor=#d6b656;fillColor=#fff2cc;align=left;verticalAlign=middle;spacingLeft=4;spacingRight=4;overflow=hidden;points=[[0,0.5],[1,0.5]];portConstraint=eastwest;rotatable=0;whiteSpace=wrap;html=1;" vertex="1" parent="mmLs14gXnxL-d7uuGad4-101">
          <mxGeometry y="120" width="140" height="30" as="geometry" />
        </mxCell>
        <mxCell id="mmLs14gXnxL-d7uuGad4-105" value="&amp;nbsp;uint padding" style="text;strokeColor=#d6b656;fillColor=#fff2cc;align=left;verticalAlign=middle;spacingLeft=4;spacingRight=4;overflow=hidden;points=[[0,0.5],[1,0.5]];portConstraint=eastwest;rotatable=0;whiteSpace=wrap;html=1;" vertex="1" parent="mmLs14gXnxL-d7uuGad4-101">
          <mxGeometry y="150" width="140" height="30" as="geometry" />
        </mxCell>
      </root>
    </mxGraphModel>
  </diagram>
</mxfile>
